# xmcd
#
# Track frame offsets: 
#        150
#        12957
#        26492
#        39447
#        51817
#        65037
#        78600
#        90050
#        102728
#        114711
#        128054
#        140730
#        153344
#        167499
#        179590
#        192088
#        202947
#        215716
#        226686
#        240289
#        252621
#        265353
#        279010
#        290772
#        302528
#
# Disc length: 4217 seconds
#
# Revision: 0
# Processed by: cddbd v1.5.2PL0 Copyright (c) Steve Scherf et al.
# Submitted via: ExactAudioCopy v0.99pb4
#
DISCID=5e107719
DTITLE=Dinah Washington - The Gold Collection - Disc 2
DYEAR=2009
DGENRE=Blues
TTITLE0=Evil Gal Blues
TTITLE1=Salty Papa Blues
TTITLE2=Embraceable You
TTITLE3=I Can't Get Started
TTITLE4=The Man I Love
TTITLE5=Stairway To The Stars
TTITLE6=Fool That I Am
TTITLE7=Mean And Evil Blues
TTITLE8=Since I Fell For You
TTITLE9=West Side Baby
TTITLE10=Ain't Misbehavin'
TTITLE11=Am I Asking Too Much?
TTITLE12=Long John Blues
TTITLE13=It's Too Soon To Know
TTITLE14=Why Can't You Behave?
TTITLE15=Good Daddy Blues
TTITLE16=Baby, Get Lost
TTITLE17=I Only Know
TTITLE18=It Isn't Fair
TTITLE19=I'll Never Be Free
TTITLE20=I Wanna Be Loved
TTITLE21=Harbor Lights
TTITLE22=Cold Cold Heart
TTITLE23=Blow Top Blues
TTITLE24=Ain't Nobody's Business If I Do
EXTD=
EXTT0=
EXTT1=
EXTT2=
EXTT3=
EXTT4=
EXTT5=
EXTT6=
EXTT7=
EXTT8=
EXTT9=
EXTT10=
EXTT11=
EXTT12=
EXTT13=
EXTT14=
EXTT15=
EXTT16=
EXTT17=
EXTT18=
EXTT19=
EXTT20=
EXTT21=
EXTT22=
EXTT23=
EXTT24=
PLAYORDER=
